<svg xmlns="http://www.w3.org/2000/svg" width="280.1" height="224" viewBox="0 0 280.1 224"><path fill="#FFF" d="M54 181.5c2 9.7 11.7 17 21.6 16.3l4.7-.3c9.9-.7 24.8 5.3 33.3 10.6l21.9 13.6c8.4 5.2 14.4 1.4 13.3-8.4v-.4c-1.1-9.8 6.1-20.9 15.9-21.6l81.9-6c9.9-.7 18.7-9.4 19.7-19.2L280 27.8c1-9.9-6.3-18.2-16.2-18.7L39.3 0C29.4-.4 23 7.2 25 16.9l29 164.6z"/><path d="M153.3 53.5l-.9 93c0 2.4-1.2 3.6-3.6 3.7l-25 1c-2.5.1-3.8-1.2-3.8-3.8v-28.8h-18.6l-.3 27.9c0 2.3-1.2 3.5-3.5 3.7-13.5 1-20.2 1.6-19.9 1.6-6 0-9-1.4-9-4.3V53.3c0-2.6 1.3-3.8 3.8-3.8l26 .1c2.4 0 3.6 1.3 3.6 3.8l-.4 38.5H120V53.3c0-2.5 1.3-3.8 3.8-3.8l25.7.1c2.6.1 3.9 1.4 3.8 3.9zM193.6 56.6l-2.1 93.1c0 2.4-1.2 3.6-3.5 3.6l-23.1.4c-1 0-1.8-.4-2.5-1.1s-1-1.6-1-2.6l1.2-93.9c0-2.6 1.2-3.9 3.5-3.8l24 .4c2.4 0 3.5 1.3 3.5 3.9zM235.4 143.3c0 3.6-1.9 6.6-5.8 8.9-3.4 2-7 3-10.9 3-4.1 0-7.8-1-11.2-3-3.9-2.4-5.9-5.5-5.9-9.3 0-3.5 2-6.4 6-8.6 3.4-2 7-3 10.8-3 3.9 0 7.6 1 11 3.1 4 2.3 6 5.3 6 8.9zm-2.5-91.2l-.9 72.6c0 2.6-1.2 3.8-3.5 3.8l-21.8-.4c-2.3 0-3.4-1.3-3.3-3.9l1.3-72.2c0-2.5 1.2-3.8 3.5-3.8h21.2c2.4.2 3.5 1.4 3.5 3.9zM16.3 31.9c5.2 1.6 8.9 6.4 8.9 12 0 6.8-5.7 12.5-12.7 12.5C5.7 56.4 0 50.8 0 43.9c0-3.4 1.4-6.4 2.5-8.6l10.9-20.7h7.3l-4.4 17.3zm35 0c5.2 1.6 8.9 6.4 8.9 12 0 6.8-5.7 12.5-12.7 12.5-6.8 0-12.5-5.7-12.5-12.5 0-3.4 1.4-6.4 2.5-8.6l10.9-20.7h7.3l-4.4 17.3zM224.3 190c-5.2-1.6-8.9-6.4-8.9-12 0-6.8 5.7-12.5 12.7-12.5 6.8 0 12.5 5.7 12.5 12.5 0 3.4-1.4 6.4-2.5 8.6l-10.9 20.7h-7.3l4.4-17.3zm34.9 0c-5.2-1.6-8.9-6.4-8.9-12 0-6.8 5.7-12.5 12.7-12.5 6.8 0 12.5 5.7 12.5 12.5 0 3.4-1.4 6.4-2.5 8.6l-10.9 20.7h-7.3l4.4-17.3z"/></svg>