<svg xmlns="http://www.w3.org/2000/svg" width="227.7" height="236.8" viewBox="0 0 227.7 236.8"><path fill="#FFF" d="M25.8 212.3c4.1-10 2.5-25.4-3.6-34.3 0 0-22.2-32.8-22.2-64.1C0 51 51 0 113.9 0c62.9 0 113.9 51 113.9 113.9 0 62.9-51 113.9-113.9 113.9-12.2 0-16-.9-16-.9-10.5-2.5-27.5-2.1-37.8 1L32.6 236c-10.3 3.1-15.4-2.6-11.3-12.5l4.5-11.2z"/><path d="M66 46.2l-2.3 31.9C62.4 95.5 53.5 103.8 37 103c-16.5-.8-24.3-9.6-23.5-26.6.2-3.7.3-5.8.4-6.4.2-1.6 1.7-2.3 4.3-2.1 1.3.1 4.3.6 8.8 1.5 1.1.2 2.8.5 5 1 1.4.4 2 1.4 1.9 3.2 0 .3-.1.8-.2 1.5-.1.6-.1 1.1-.2 1.4-.1 2.5 0 4.4.4 5.5.6 1.9 2 3 4 3.1 2.2.1 3.8-1 4.6-3.3.4-1.1.7-3.2.9-6.2l1.9-31.1c.1-1.6.9-2.3 2.4-2.1L64 43.8c1.4.2 2.1 1 2 2.4zM126.5 77.9c-.4 8.3-3.2 15.4-8.5 21.3-5.6 6.3-12.5 9.2-20.6 8.8-9.5-.5-16.8-3.8-21.9-9.9-5-6-7.3-13.7-6.8-23.2.5-9.3 3.6-17 9.4-23 6.1-6.2 13.7-9.1 22.9-8.7 8.3.4 14.8 4.3 19.6 11.8 4.3 6.6 6.3 14.3 5.9 22.9zm-18.9-.5c.2-3.1-.5-6-2.1-8.5-1.8-2.9-4.1-4.4-7.1-4.6-3-.1-5.4 1.2-7.4 3.9-1.7 2.4-2.7 5.1-2.8 8.3-.1 3.1.5 5.9 2 8.5 1.7 2.9 4.1 4.5 7 4.6 3 .1 5.4-1.1 7.5-3.9 1.8-2.4 2.8-5.2 2.9-8.3zM151.2 49l-3.9 55.8c-.1 1.4-.8 2.1-2.2 2.1l-13.9-.4c-.6 0-1.1-.3-1.5-.8-.4-.5-.5-1-.5-1.6l3.4-56.4c.1-1.6.8-2.3 2.2-2.2l14.4 1c1.5.1 2.1 1 2 2.5zM206.9 51.8l-3.2 55.9c-.1 1.4-.8 2.1-2.2 2.1l-14.4-.1c-1 0-1.6-.5-2-1.4l-11.6-28.6-1.5 26.6c-.1 1.2-.9 1.9-2.3 2-6.7.2-10.4.4-11.2.3-3.4-.2-5-1.1-4.9-2.8l2.7-56.4c.1-1.9 2.3-2.8 6.6-2.6 1.3.1 4.9.5 10.7 1.2.9.1 1.5.6 1.8 1.4l11.4 28.3 1.3-26.8c.1-1.9 2.2-2.7 6.4-2.5 1.5.1 5 .4 10.3 1.1 1.5.1 2.2.9 2.1 2.3zM93 129.3l-2.3 31.9C89.4 178.5 80.5 186.8 64 186c-16.5-.8-24.3-9.6-23.5-26.5 0 .1.4-7.3 1.3-22.3l.5-7.5c0-.7.1-1.8.2-3.1.3-1.7 2-2.4 5.3-2.3 1.7.1 4.8.5 9.2 1.2 1.2.2 2.4.4 3.7.6 1.5.4 2.3 1.3 2.2 2.5l-2.1 28.1c0 .2 0 .6-.1 1.2-.1.5-.1.9-.1 1.2-.1 2.7 0 4.6.3 5.7.6 2 1.9 3.1 4.1 3.2 2.3.1 3.8-.9 4.6-3.1.4-1.1.7-3.2.9-6.2l1.9-29.9c.1-1.4.8-2.1 2.2-2.1l16.1.4c.7 0 1.2.3 1.6.7.6.4.8.9.7 1.5zM146.5 137.2c0 .6-.2 1.1-.6 1.5l-10.2 10.9c-.5.5-1 .8-1.7.7-.1 0-1.9-1.1-5.3-3.4-3.5-2.2-6.7-3.4-9.8-3.6-1.7-.1-2.6.3-2.7 1.2 0 .5 1.2 1.4 3.6 2.4 8.7 3.9 14.1 6.6 16.3 8.2 5.7 4.1 8.4 9.2 8.1 15.1-.3 6.9-3.3 11.8-8.8 14.8-4.5 2.4-10.4 3.4-17.7 3.1-4.3-.2-8.6-1.4-13-3.6-4.6-2.3-8.1-5.2-10.4-8.5-.3-.5-.5-1-.5-1.5 0-.6.2-1.1.6-1.5l10.1-10.4c.5-.5 1.1-.7 1.8-.7.1 0 2 1.1 5.6 3.4 3.6 2.2 6.5 3.4 9 3.5 2.1.1 3.2-.4 3.2-1.5 0-.7-1.2-1.5-3.6-2.5-2.2-.8-5.6-2.1-10-3.8-10.1-4.4-14.9-10.9-14.5-19.5.3-5.5 3.5-10 9.6-13.6 5.4-3.1 11-4.5 16.9-4.3 4.3.2 8.7 1.4 13.1 3.5 4.6 2.2 8.1 5.1 10.5 8.4.3.7.5 1.2.4 1.7zM169.6 182c-.1 2.2-1.4 3.9-3.8 5.2-2.1 1.1-4.3 1.6-6.6 1.5-2.4-.1-4.6-.8-6.6-2.2-2.3-1.6-3.4-3.5-3.3-5.7.1-2.1 1.4-3.8 3.8-5 2.1-1.1 4.3-1.6 6.6-1.5 2.3.1 4.5.8 6.5 2.2 2.4 1.5 3.5 3.4 3.4 5.5zm1.1-54.8l-2.7 43.5c-.1 1.5-.8 2.3-2.2 2.2l-13.1-.8c-1.4-.1-2-.9-1.9-2.4l2.9-43.3c.1-1.5.8-2.2 2.2-2.2l12.7.6c1.5.1 2.2.9 2.1 2.4z"/></svg>