<svg id="Layer_1" data-name="Layer 1" xmlns="http://www.w3.org/2000/svg" viewBox="0 0 500 500"><defs><style>.cls-1{fill:#010101;}.cls-2{fill:#fff;}</style></defs><title>zwl icons</title><path class="cls-1" d="M379.63,238.12A128.36,128.36,0,0,0,251.28,109.77c-70.89,0-128.59,57.92-128.35,128.8a128,128,0,0,0,37.47,90.18,145.55,145.55,0,0,1,37.71,64.75l10.35,38.27h84.13l9.8-36.25a146.08,146.08,0,0,1,38.87-65.88A127.94,127.94,0,0,0,379.63,238.12Z"/><path class="cls-2" d="M270.72,476.6h-41c-11.62,0-21.56-8.59-22.23-19.47l-3.46-42,92.91-.59-4,42.63C292.28,468,282.34,476.6,270.72,476.6Z"/><path class="cls-1" d="M261.74,44.51c0,8.27-4.39,38-9.82,38s-9.82-29.74-9.82-38,4.4-15,9.82-15S261.74,36.24,261.74,44.51Z"/><path class="cls-1" d="M384.14,90.18c-6.28,5.39-26,28.1-22.43,32.22s29-11.93,35.23-17.32,8.49-13.1,4.95-17.21S390.41,84.79,384.14,90.18Z"/><path class="cls-1" d="M431.84,222.87c-8.21,1-38.26.42-38.94-5s28.26-13.49,36.46-14.53,15.41,2.48,16.1,7.86S440,221.83,431.84,222.87Z"/><path class="cls-1" d="M130.94,80.3c6.51,5.1,27.21,26.9,23.87,31.17s-29.47-10.6-36-15.7-9.08-12.7-5.74-17S124.43,75.2,130.94,80.3Z"/><path class="cls-1" d="M68.78,201.62c8.21,1,38.26.42,39-5s-28.26-13.49-36.47-14.54S55.85,184.6,55.17,190,60.58,200.57,68.78,201.62Z"/><path class="cls-2" d="M306.68,303.47A32.88,32.88,0,0,1,297,292.06c4.65-5.75,6.7-13.47,7.55-20.66a126.68,126.68,0,0,0,.75-13.21c.06-4.26-.5-7.88-4.1-10.53-3.22-2.36-7.51-.23-10,2.07-2.85,2.64-4.23,7-5.33,10.59a47.7,47.7,0,0,0-.78,22.53,45.65,45.65,0,0,0,2.14,7.6,19.83,19.83,0,0,1-6.16,3.28c-7,2.24-12.34-1.8-15.58-7.78-.54-1-1-2-1.52-3.1.55-1.48,1.08-3,1.57-4.42a92.08,92.08,0,0,0,4.3-22c.5-6.18.67-13.57-5.27-17.23a3.9,3.9,0,0,0-5.26,1.38c-8.7,12.06-8.21,28-3.49,41.72a90.58,90.58,0,0,1-5.28,10.57c-2.18,3.75-6.34,9.54-11.39,8.8-4.69-.68-8.45-6.58-10.78-10.22a41.38,41.38,0,0,1-4.11-8.5q.89-2.35,1.66-4.76a88,88,0,0,0,3.65-19.5c.43-5.5.61-13.23-5.41-15.87-1.76-.77-4.34-.68-5.27,1.38a55.06,55.06,0,0,0-3,37.14c.11.42.24.84.36,1.26a81.54,81.54,0,0,1-15.94,25.22c-3,3.29,1.76,8.13,4.91,4.92a85.28,85.28,0,0,0,14.92-20.68,54.2,54.2,0,0,0,3.9,6.26c3.93,5.45,8.86,10.55,15.94,10.93,6.6.36,12-5.2,15.55-10a52.64,52.64,0,0,0,4.56-7.47c3.23,5.15,7.9,9.24,14.26,10.13,5.85.83,11.52-1,16.32-4.2A48.78,48.78,0,0,0,301.4,310.3,4.33,4.33,0,1,0,306.68,303.47Zm-44.21-53.53c.27,3.08-.44,6.87-.62,8.74a72.31,72.31,0,0,1-1.69,10.11C259.36,262.23,259.9,255.51,262.47,249.94Zm30,19.34a36.63,36.63,0,0,1,2.15-9.34,19.18,19.18,0,0,1,1.87-3.87,8.88,8.88,0,0,1,.6-.75,5.25,5.25,0,0,1,.15.93c.41,7.79-.23,16.19-2.66,23.62a23,23,0,0,1-1.07,2.68A44.06,44.06,0,0,1,292.45,269.28Z"/><path class="cls-2" d="M314,284.59c-13.64,41.66-28,83.1-43.44,124.13-1.85,4.91,5.72,7.92,7.55,3,15.38-41.09,29.67-82.55,42.48-124.51C321.88,282.89,315.41,280.23,314,284.59Z"/><path class="cls-2" d="M189.85,282c10.89,42.46,21.06,85.13,30.11,128,1.08,5.14,9.08,3.61,8-1.52-9.13-42.91-19.38-85.55-31.14-127.81C195.6,276.27,188.71,277.51,189.85,282Z"/></svg>