<svg xmlns="http://www.w3.org/2000/svg" width="481" height="271" viewBox="0 0 481 271">
  <path d="M314.7 128.4c0-40.7-33-73.8-73.8-73.8-40.7 0-73.9 33.3-73.8 74 .1 20.2 8.3 38.5 21.5 51.8 10.3 10.3 17.9 23.1 21.7 37.2l5.9 22h48.4l5.6-20.8c3.9-14.4 11.7-27.4 22.3-37.9 13.8-13.3 22.2-31.9 22.2-52.5z"/>
  <path d="M252.1 265.5h-23.6c-6.7 0-12.4-4.9-12.8-11.2l-2-24.2 53.4-.3-2.3 24.5c-.3 6.2-6 11.2-12.7 11.2zM247 17.1c0 4.8-2.5 21.8-5.6 21.8-3.1 0-5.6-17.1-5.6-21.8s2.4-8.6 5.5-8.6 5.7 3.9 5.7 8.6zm70.3 26.3c-3.6 3.1-14.9 16.2-12.9 18.5s16.6-6.9 20.2-10 4.9-7.5 2.8-9.9c-1.9-2.3-6.5-1.7-10.1 1.4zm27.4 76.2c-4.7.6-22 .2-22.4-2.8-.4-3.1 16.2-7.8 21-8.4 4.7-.6 8.9 1.4 9.3 4.5.4 3.1-3.1 6.1-7.9 6.7zM171.8 37.7c3.7 2.9 15.6 15.5 13.7 17.9-1.9 2.5-16.9-6.1-20.7-9-3.7-2.9-5.2-7.3-3.3-9.8 1.9-2.4 6.5-2.1 10.3.9zm-35.7 69.7c4.7.6 22 .2 22.4-2.8.4-3.1-16.2-7.8-21-8.4-4.7-.6-8.9 1.4-9.2 4.5-.5 3.1 3 6.1 7.8 6.7z"/>
  <path fill="#FFF" d="M272.8 166c-2.4-1.7-4.2-4-5.6-6.6 2.7-3.3 3.9-7.7 4.3-11.9.3-2.5.4-5.1.4-7.6 0-2.4-.3-4.5-2.4-6.1-1.8-1.4-4.3-.1-5.7 1.2-1.6 1.5-2.4 4-3.1 6.1-1.3 4.2-1.3 8.7-.5 13 .3 1.5.7 2.9 1.2 4.4-1 .8-2.2 1.5-3.5 1.9-4 1.3-7.1-1-9-4.5l-.9-1.8c.3-.8.6-1.7.9-2.5 1.4-4.1 2.1-8.4 2.5-12.6.3-3.6.4-7.8-3-9.9-1.1-.7-2.3-.2-3 .8-5 6.9-4.7 16.1-2 24-.9 2.1-1.9 4.1-3 6.1-1.3 2.2-3.6 5.5-6.5 5.1-2.7-.4-4.9-3.8-6.2-5.9-1-1.5-1.8-3.2-2.4-4.9.3-.9.7-1.8 1-2.7 1.2-3.6 1.8-7.4 2.1-11.2.2-3.2.4-7.6-3.1-9.1-1-.4-2.5-.4-3 .8-3 6.8-3.6 14.2-1.7 21.3.1.2.1.5.2.7-2.1 5.3-5.3 10.3-9.2 14.5-1.7 1.9 1 4.7 2.8 2.8 3.5-3.5 6.3-7.5 8.6-11.9.7 1.3 1.4 2.5 2.2 3.6 2.3 3.1 5.1 6.1 9.2 6.3 3.8.2 6.9-3 8.9-5.8 1-1.3 1.9-2.8 2.6-4.3 1.9 3 4.5 5.3 8.2 5.8 3.4.5 6.6-.6 9.4-2.4 1.6 2.7 3.7 5.2 6.1 7.3 2.9 2.2 6.1-1.9 3.2-4zm-25.4-30.8c.2 1.8-.3 3.9-.4 5-.2 2-.5 3.9-1 5.8-.4-3.7-.1-7.6 1.4-10.8zm17.2 11.1c.1-1.8.6-3.6 1.2-5.4.3-.8.6-1.5 1.1-2.2 0-.1.2-.3.3-.4 0 .1.1.3.1.5.2 4.5-.1 9.3-1.5 13.6l-.6 1.5c-.6-2.5-.8-5.1-.6-7.6z"/>
  <path fill="#FFF" d="M277 155.1c-7.8 23.9-16.1 47.8-25 71.3-1.1 2.8 3.3 4.6 4.3 1.7 8.8-23.6 17.1-47.4 24.4-71.6.8-2.4-2.9-3.9-3.7-1.4zm-71.4-1.5c6.3 24.4 12.1 48.9 17.3 73.6.6 3 5.2 2.1 4.6-.9-5.2-24.7-11.1-49.2-17.9-73.5-.7-2.5-4.6-1.8-4 .8z"/>
</svg>
