<svg xmlns="http://www.w3.org/2000/svg" width="101.4" height="86.4" viewBox="0 0 101.4 86.4">
  <g fill="#FFF">
    <path d="M24.1 29.6c0 .7-.4 1.1-1.1 1.1l-21.2-.3c-.7 0-1-.4-1-1l-.2-7.1c0-.3.1-.5.3-.8l11.4-10.9-10.5-.4c-.7 0-1-.4-1-1.1C.5 5.2.4 3.5.4 3.9c0-1.7.4-2.6 1.3-2.6h21.4c.7 0 1.1.4 1.1 1.1v7.5c0 .3-.1.5-.3.8L12.6 21.4H23c.7 0 1.1.4 1.1 1.1v7.1zM47.3 28.3c0 .7-.3 1.1-1 1.1H27.6c-.7 0-1.1-.4-1.1-1.1V1.1c0-.7.4-1.1 1.1-1.1h18.7c.7 0 1 .4 1 1.1v5.4c0 .7-.3 1.1-1 1.1H35.9V11H44c.7 0 1.1.4 1.1 1.1v5.5c0 .7-.4 1.1-1.1 1.1h-8.1v3h10.4c.7 0 1 .4 1 1.1v5.5zM73.8 29.4c0 .7-.3 1.1-1 1.1l-7.8.3c-.4 0-.7-.1-1-.5l-4.5-6c0 .4 0 .9.1 1.6 0 .7.1 1.2.1 1.6 0 1.7-.4 2.6-1.2 2.7-.5 0-1.1.1-2 .2-2 .3-3.4.4-4.2.4-1.6 0-2.3-.4-2.4-1.2l-.1-28c0-.5.3-.9.8-1 1-.4 3.2-.6 6.6-.6 5.8 0 9.9 1.4 12.4 4.3 1.8 2 2.7 4.4 2.7 7.2 0 3.8-1.5 6.9-4.5 9.3l5.9 8c0 .1.1.4.1.6zM62.7 12.7c0-1.8-1-2.8-3-3.2l-.1 6.6c2.1-.5 3.1-1.6 3.1-3.4zM101 16.5c0 4-1.2 7.5-3.6 10.4-2.6 3.1-5.8 4.7-9.7 4.7-4.6 0-8.1-1.4-10.7-4.2-2.5-2.7-3.8-6.4-3.8-11 0-4.5 1.3-8.2 4-11.3C80 2 83.6.4 88 .4c4 0 7.2 1.7 9.7 5.2 2.2 3.1 3.3 6.8 3.3 10.9zm-9 .2c0-1.5-.4-2.9-1.2-4.1-.9-1.4-2.1-2-3.5-2s-2.6.7-3.5 2c-.8 1.2-1.2 2.5-1.2 4s.4 2.8 1.2 4c.9 1.4 2.1 2 3.5 2s2.6-.7 3.5-2c.8-1.1 1.2-2.4 1.2-3.9z"/>
    <g>
      <path d="M24.4 34.7l-1.7 21c0 .5-.3.7-.8.7l-6.2.3c-.4 0-.7-.2-.8-.5l-2.7-7.8-2.6 7.8c-.1.4-.4.6-.8.6l-5.9-.3c-.5 0-.7-.3-.8-.7L0 34.5c0-.6.3-.9.8-.9h5.1c.5 0 .8.3.9.8l.7 10.2 1.8-8.1c.1-.4.4-.6.8-.6h4.2c.5 0 .7.2.8.6l1.7 8 .8-10.3c0-.5.3-.8.9-.8l5.1.3c.6.2.8.4.8 1zM44.7 56.1c0 .6-.3.9-.8.9l-5.9-.2c-.5 0-.9-.6-1.2-1.9-.1-.9-.2-1.7-.3-2.6h-4.1c-.1.8-.2 1.5-.3 2.3-.2 1.1-.6 1.6-1.1 1.6h-6c-.2 0-.4-.1-.6-.3-.2-.2-.3-.4-.3-.6v-.2l4.9-21c.1-.5.4-.7.8-.7h9.3c.5 0 .7.2.8.7l4.8 22c0-.1 0-.1 0 0zm-9.3-9.7l-.8-4.7-1 4.7h1.8zM64.4 37.7c0 .2-.1.4-.2.6l-3.6 4.2c-.2.2-.4.3-.6.3 0 0-.7-.4-2-1.2-1.3-.8-2.6-1.2-3.7-1.2-.6 0-1 .2-1 .5 0 .2.5.5 1.4.8 3.3 1.3 5.4 2.2 6.2 2.8 2.2 1.4 3.3 3.2 3.3 5.5 0 2.6-1 4.4-3 5.6-1.6 1-3.8 1.5-6.5 1.5-1.6 0-3.2-.4-4.9-1.1-1.8-.8-3.1-1.8-4-3-.1-.2-.2-.4-.2-.6 0-.2.1-.4.2-.6l3.6-4.1c.2-.2.4-.3.6-.3.1 0 .8.4 2.1 1.1 1.4.8 2.5 1.1 3.4 1.1.8 0 1.2-.2 1.2-.6 0-.3-.5-.5-1.4-.9-.8-.3-2.1-.7-3.8-1.2-3.8-1.5-5.7-3.8-5.7-7 0-2 1.1-3.8 3.3-5.2 2-1.3 4-1.9 6.2-1.9 1.6 0 3.2.4 4.9 1.1 1.8.8 3.1 1.7 4 2.9.2.6.2.8.2.9zM83.4 39.8c0 .6-.3.9-.9.9h-4l.1 15.3c0 .5-.3.8-.8.9l-5.7.1c-.6 0-.8-.3-.8-.9V40.6h-4.6c-.6 0-.8-.3-.8-.9v-4.2c0-.6.3-.8.8-.8h15.9c.6 0 .9.3.9.8v4.3zM100.9 54.9c0 .6-.3.8-.8.8H85.6c-.5 0-.8-.3-.8-.8v-21c0-.6.3-.9.8-.9h14.5c.5 0 .8.3.8.9v4.2c0 .6-.3.8-.8.8h-8v2.6h6.3c.5 0 .8.3.8.8v4.2c0 .6-.3.8-.8.8h-6.3v2.4h8c.5 0 .8.3.8.9v4.3z"/>
    </g>
    <g>
      <path d="M18.2 83.5c0 .6-.3.9-.9.9H1.6c-.6 0-.9-.3-.9-.9L.5 61c0-.6.3-.9.9-.9l6.3-.1c.6 0 .9.3.9.9V78h8.6c.6 0 .9.3.9.9v4.6zM37.5 83.5c0 .6-.3.9-.9.9h-16c-.6 0-.9-.3-.9-.9V60.3c0-.6.3-.9.9-.9h16c.6 0 .9.3.9.9V65c0 .6-.3.9-.9.9h-8.9v2.9h6.9c.6 0 .9.3.9.9v4.7c0 .6-.3.9-.9.9h-6.9v2.6h8.9c.6 0 .9.3.9.9v4.7zM57.4 83.5c0 .6-.3.9-.9.9h-16c-.6 0-.9-.3-.9-.9V60.3c0-.6.3-.9.9-.9h16c.6 0 .9.3.9.9V65c0 .6-.3.9-.9.9h-8.9v2.9h6.9c.6 0 .9.3.9.9v4.7c0 .6-.3.9-.9.9h-6.9v2.6h8.9c.6 0 .9.3.9.9v4.7zM80 72.8c0 5-2.1 8.6-6.4 10.9-3.4 1.8-7.7 2.7-13.1 2.7-.6 0-.9-.3-.9-.9V60.1c0-.6.3-.9.9-.9 5.4 0 9.8.9 13.1 2.7 4.3 2.3 6.4 6 6.4 10.9zm-8.5 0c0-1.2-.3-2.2-.9-3.2-.6-1.1-1.5-1.8-2.6-2V78c1.1-.2 1.9-.8 2.6-2 .7-.9.9-2 .9-3.2zM101.4 64.6c0 .2-.1.4-.2.6l-4 4.7c-.2.2-.4.3-.7.3 0 0-.8-.4-2.3-1.3-1.5-.9-2.8-1.3-4.1-1.3-.7 0-1.1.2-1.1.5 0 .2.5.5 1.5.9 3.6 1.4 5.9 2.4 6.9 3 2.4 1.6 3.6 3.6 3.6 6 0 2.8-1.1 4.9-3.3 6.2-1.8 1.1-4.2 1.6-7.2 1.6-1.8 0-3.6-.4-5.4-1.2-1.9-.9-3.4-2-4.4-3.3-.2-.2-.2-.4-.2-.6 0-.2.1-.4.2-.6l3.9-4.5c.2-.2.4-.3.7-.3.1 0 .8.4 2.3 1.3 1.5.8 2.8 1.3 3.7 1.3.9 0 1.3-.2 1.3-.7 0-.3-.5-.6-1.5-.9-.9-.3-2.3-.7-4.2-1.4-4.2-1.6-6.3-4.2-6.3-7.7 0-2.3 1.2-4.2 3.7-5.8 2.2-1.4 4.4-2.1 6.8-2.1 1.8 0 3.6.4 5.4 1.2 2 .8 3.4 1.9 4.5 3.3.4.4.4.6.4.8z"/>
    </g>
  </g>
</svg>