<svg xmlns="http://www.w3.org/2000/svg" width="305" height="251.59" viewBox="0 0 305 251.59"><style>.st1{fill:#010000}</style><path d="M261.84 211.5c-2.9 9.47-13.26 15.87-23.03 14.24l-4.65-.78c-9.77-1.64-45.15 1.13-54.01 5.55l-23.11 11.51c-8.87 4.42-14.46.1-12.43-9.59l.07-.35c2.03-9.69-4.09-21.32-13.85-22.96L50.8 185.6c-9.77-1.64-17.79-11.08-17.83-20.98l-.89-138.99c-.04-9.9 8.02-17.58 17.91-17.06l222.47 31.72c9.89.52 15.61 8.7 12.71 18.16L261.84 211.5z" fill="#fff"/><path class="st1" d="M64.77 75.97c0 1.56-.81 2.34-2.42 2.34H51.36l.39 41.79c0 1.5-.75 2.28-2.25 2.34l-15.66.35c-1.53.03-2.29-.75-2.29-2.34V78.31H18.89c-1.54 0-2.31-.78-2.31-2.34V64.46c0-1.53.76-2.29 2.29-2.29h43.48c1.61 0 2.42.76 2.42 2.29v11.51zM120.02 59.96l-.52 56.76c0 1.44-.74 2.19-2.21 2.25l-15.23.61c-1.53.06-2.31-.71-2.34-2.29V99.72H88.4l-.17 17c0 1.38-.71 2.14-2.12 2.25-8.25.63-12.3.95-12.16.95-3.66 0-5.49-.88-5.49-2.64v-57.4c0-1.56.78-2.34 2.33-2.34l15.85.09c1.49.03 2.22.81 2.2 2.33l-.26 23.5h11.16V59.87c0-1.55.78-2.33 2.33-2.33l15.68.09c1.54.03 2.3.8 2.27 2.33zM179.42 120.44c0 1.59-.76 2.36-2.29 2.34l-16.14-.26c-1.5-.03-2.58-1.73-3.24-5.1-.26-2.34-.53-4.66-.82-6.97h-11.16c-.32 2.08-.63 4.15-.95 6.23-.63 3-1.66 4.5-3.07 4.5h-16.18c-.61 0-1.15-.24-1.64-.71-.49-.48-.74-1.02-.74-1.62 0-.14.01-.29.04-.43l13.32-57.84c.26-1.24 1.02-1.86 2.29-1.86h25.27c1.24 0 2 .62 2.29 1.86l13.02 59.62v.24zm-25.35-26.26l-2.29-12.72-2.68 12.72h4.97zM234.23 62l-.52 56.88c0 1.42-.71 2.15-2.12 2.21l-14.62.61c-.98.06-1.69-.39-2.12-1.34l-13.2-28.42-.26 27.04c-.03 1.27-.78 1.97-2.25 2.12-6.75.58-10.53.87-11.33.87-3.43 0-5.15-.85-5.15-2.55V62.08c0-1.96 2.19-2.94 6.56-2.94 1.35 0 5 .22 10.96.65.92.06 1.57.49 1.94 1.3l12.99 28.12V62c0-1.91 2.11-2.86 6.33-2.86 1.55 0 5.05.19 10.51.56 1.55.09 2.31.86 2.28 2.3zM293.46 63.77c0 .52-.12.95-.35 1.3l-16.48 24.75c10.21 18.23 15.31 27.64 15.31 28.25 0 1.47-.71 2.23-2.12 2.29l-17.91.82c-1.04.03-1.77-.42-2.21-1.34l-8.78-18.6-.17 14.88c-.03 1.38-.74 2.12-2.12 2.21l-16.92 1.08c-1.47 0-2.22-.76-2.25-2.29l-.26-54.77c0-1.53.78-2.29 2.34-2.29l17.43-.09c.63 0 1.18.22 1.64.67.46.45.68.99.65 1.62l-.17 17.82 10.64-17.91c.46-.81 1.14-1.2 2.03-1.17l17.56.48c1.43.03 2.14.79 2.14 2.29zM114.74 142.07c0 .49-6.17 13.31-18.52 38.46l.26 16.4c.03 1.5-.74 2.26-2.29 2.29l-16.92.35c-1.53.03-2.29-.74-2.29-2.29v-16.74c-11.28-25.38-16.92-38.29-16.92-38.72 0-1.56.76-2.32 2.29-2.29l17 .26c1.15.03 1.89.56 2.21 1.6l6.4 20.29 7.27-20.38c.35-1.01 1.05-1.51 2.12-1.51h17.09c1.54-.01 2.3.76 2.3 2.28zM169.25 169.89c0 8.48-2.52 15.81-7.57 21.98-5.42 6.63-12.26 9.95-20.51 9.95-9.63 0-17.2-2.99-22.71-8.96-5.36-5.8-8.05-13.54-8.05-23.23 0-9.49 2.81-17.42 8.44-23.79 5.85-6.63 13.47-9.95 22.84-9.95 8.39 0 15.21 3.68 20.46 11.03 4.74 6.61 7.1 14.26 7.1 22.97zm-19.16.48c0-3.17-.84-6.03-2.51-8.57-1.93-2.86-4.4-4.28-7.4-4.28s-5.45 1.44-7.35 4.33c-1.64 2.51-2.47 5.35-2.47 8.52 0 3.14.82 5.97 2.47 8.48 1.9 2.88 4.35 4.33 7.35 4.33s5.47-1.43 7.4-4.28c1.67-2.55 2.51-5.39 2.51-8.53zM225.06 142.59l-.78 32.45c-.43 17.65-9.06 26.48-25.87 26.48-16.73 0-25.09-8.57-25.09-25.7 0 .14.09-7.41.26-22.67l.13-7.61c-.03-.72 0-1.79.09-3.2.17-1.7 1.93-2.55 5.28-2.55 1.73 0 4.87.26 9.43.78 1.24.14 2.49.27 3.76.39 1.59.38 2.36 1.17 2.34 2.38l-.74 28.6c0 .2-.02.61-.04 1.21-.03.49-.04.89-.04 1.21 0 2.74.2 4.67.61 5.8.69 2.02 2.12 3.03 4.28 3.03 2.31 0 3.82-1.14 4.54-3.42.35-1.15.55-3.26.61-6.32l.43-30.46c.03-1.44.74-2.19 2.12-2.25l16.4-.43c.66 0 1.22.22 1.67.67.43.44.64.98.61 1.61zM250.63 192.3c0 2.22-1.18 4.04-3.56 5.45a12.824 12.824 0 0 1-6.63 1.82c-2.49 0-4.75-.62-6.81-1.86-2.4-1.47-3.6-3.36-3.6-5.67 0-2.13 1.21-3.89 3.64-5.28 2.08-1.21 4.28-1.82 6.59-1.82 2.37 0 4.61.63 6.72 1.9 2.44 1.45 3.65 3.27 3.65 5.46zm-1.51-55.63l-.56 44.3c0 1.56-.71 2.34-2.12 2.34l-13.28-.22c-1.38 0-2.06-.79-2.03-2.38l.78-44.04c.03-1.53.75-2.29 2.16-2.29H247c1.41-.01 2.12.76 2.12 2.29z"/><path d="M16.35 17.25c5.23 1.59 8.86 6.36 8.86 12.03 0 6.81-5.68 12.49-12.72 12.49C5.68 41.77 0 36.1 0 29.28c0-3.4 1.36-6.36 2.5-8.62L13.4 0h7.26l-4.31 17.25zm34.96 0c5.22 1.59 8.85 6.36 8.85 12.03 0 6.81-5.68 12.49-12.71 12.49-6.81 0-12.49-5.67-12.49-12.49 0-3.4 1.36-6.36 2.5-8.62L48.35 0h7.26l-4.3 17.25zM253.7 234.34c-5.23-1.59-8.86-6.36-8.86-12.04 0-6.81 5.67-12.48 12.71-12.48 6.81 0 12.48 5.67 12.48 12.48 0 3.41-1.36 6.36-2.5 8.63l-10.89 20.66h-7.27l4.33-17.25zm34.95 0c-5.22-1.59-8.85-6.36-8.85-12.04 0-6.81 5.68-12.48 12.71-12.48 6.81 0 12.48 5.67 12.48 12.48 0 3.41-1.36 6.36-2.5 8.63l-10.89 20.66h-7.26l4.31-17.25z"/></svg>