<svg class="home-hero__zero" xmlns="http://www.w3.org/2000/svg" width="353.7" height="481.5" viewBox="-30 -40 393.7 521.5">
  <path id="zero-path" d="M300.8,272.9c58.6-131.2-152-277.7-251.9-154.5
	c-70.5,86.9-77.3,298.2,70.5,335.1c77.3,19.3,153.2-21.7,192.7-78.3c43-61.6,51-143.9,33.4-216.4C328.6,89.6,273,10,190.2,1.2
	c-80.1-8.5-141.1,61.9-167,121.7c-15.8,36.4-19.2,74-16,113.5c3.6,44,10.9,88.7,28.8,130.5c15.9,37.3,44.8,71.7,86.6,86.6
	c46.6,16.5,92.1,5.8,130.1-19.5c71.3-47.4,90.1-127.5,77.3-206.4c-11.1-68.5-49.7-143.9-124.2-172.1C131.2,27.3,48.6,64.8,22.3,130
	C-6.8,202.2,8.1,289.6,40.3,361.4c25.3,56.4,79.5,124.9,153,120.4c64.9-4,107.1-64.1,128.2-113.9"/>
</svg>
