<?xml version="1.0" standalone="no"?>
<!DOCTYPE svg PUBLIC "-//W3C//DTD SVG 20010904//EN"
 "http://www.w3.org/TR/2001/REC-SVG-20010904/DTD/svg10.dtd">
<svg version="1.0" xmlns="http://www.w3.org/2000/svg"
 width="964.000000pt" height="964.000000pt" viewBox="0 0 964.000000 964.000000"
 preserveAspectRatio="xMidYMid meet">
<metadata>
Created by potrace 1.11, written by Peter Selinger 2001-2013
</metadata>
<g transform="translate(0.000000,964.000000) scale(0.100000,-0.100000)"
fill="#000000" stroke="none">
<path d="M4846 9003 c-1 -1 -33 -5 -72 -8 -38 -3 -79 -7 -91 -9 -11 -3 -43 -8
-70 -12 -26 -3 -57 -8 -68 -11 -11 -2 -31 -6 -45 -9 -14 -3 -50 -11 -81 -19
-30 -8 -64 -16 -75 -18 -10 -1 -23 -5 -29 -9 -9 -5 -78 -26 -110 -34 -9 -2
-89 -33 -145 -57 -14 -5 -30 -11 -36 -12 -26 -6 -288 -139 -343 -175 -34 -22
-64 -40 -68 -40 -3 0 -28 -16 -54 -35 -27 -19 -54 -35 -59 -35 -6 0 -10 -4
-10 -8 0 -5 -23 -23 -50 -41 -28 -18 -81 -57 -118 -87 -37 -30 -85 -69 -107
-87 -133 -108 -389 -370 -503 -516 -15 -19 -32 -39 -38 -45 -5 -6 -47 -60 -92
-121 -45 -60 -86 -115 -91 -121 -4 -5 -14 -21 -21 -35 -7 -13 -16 -26 -20 -29
-11 -8 -145 -222 -192 -306 -24 -44 -48 -88 -54 -99 -22 -39 -113 -221 -137
-275 -30 -65 -59 -133 -62 -140 -9 -27 -27 -68 -35 -82 -6 -10 -10 -26 -10
-36 0 -10 -5 -23 -12 -30 -7 -7 -8 -12 -4 -12 5 0 4 -6 -1 -12 -11 -14 -90
-257 -97 -298 -3 -14 -5 -25 -6 -25 -1 0 -3 -7 -5 -15 -2 -8 -11 -46 -20 -85
-9 -38 -19 -79 -21 -90 -2 -11 -6 -31 -9 -45 -3 -14 -7 -38 -10 -55 -3 -16 -7
-43 -10 -60 -17 -96 -29 -195 -41 -320 -8 -85 -16 -257 -19 -405 -2 -85 -6
-165 -8 -176 -3 -12 -8 -37 -11 -55 -3 -19 -7 -43 -10 -54 -7 -35 -16 -98 -21
-140 -3 -22 -7 -53 -10 -70 -2 -16 -7 -59 -10 -95 -3 -36 -8 -81 -10 -100 -18
-152 -24 -589 -12 -785 16 -241 26 -329 63 -540 4 -22 7 -50 8 -62 1 -13 4
-23 8 -23 3 0 5 -8 4 -17 -2 -9 3 -37 10 -60 7 -24 14 -47 14 -51 2 -17 29
-131 44 -187 21 -77 33 -116 63 -205 38 -113 126 -338 145 -374 7 -11 13 -23
13 -26 2 -15 107 -209 162 -300 35 -58 69 -114 76 -125 7 -11 15 -22 18 -25 3
-3 20 -27 39 -55 38 -56 156 -204 176 -221 8 -6 14 -14 14 -17 0 -14 230 -235
320 -308 30 -24 57 -47 60 -50 3 -3 41 -30 85 -60 44 -30 86 -60 93 -66 7 -7
19 -13 27 -13 7 0 15 -3 17 -8 8 -19 287 -167 398 -211 73 -28 119 -53 144
-76 14 -13 46 -38 70 -54 25 -17 50 -37 58 -43 21 -21 187 -128 197 -128 5 0
11 -3 13 -7 7 -18 269 -150 388 -196 155 -61 103 -57 833 -57 l672 0 70 26
c39 14 82 30 98 36 15 5 57 25 95 44 37 19 73 34 80 34 6 0 12 5 12 10 0 6 5
10 11 10 14 0 227 128 253 152 11 10 23 18 27 18 6 0 126 92 183 140 128 109
283 262 376 373 35 42 68 77 72 77 4 0 8 5 8 12 0 6 7 18 15 27 18 19 72 88
100 127 11 15 35 47 53 71 17 24 32 48 32 53 0 6 5 10 10 10 6 0 10 6 10 13 0
8 9 22 20 32 11 10 20 23 20 28 0 6 10 24 23 41 23 30 117 187 131 216 3 8 22
42 41 75 33 56 138 264 140 275 0 3 4 10 8 16 4 7 22 48 41 92 l35 81 -30 10
c-31 11 -31 23 1 71 70 103 213 398 297 610 50 127 149 423 159 475 1 6 10 39
19 75 10 36 19 78 21 93 2 15 9 38 16 50 6 12 10 23 9 25 -2 1 0 21 4 45 8 45
10 54 25 137 6 30 14 75 18 100 9 56 9 1660 0 1715 -9 60 -19 117 -24 145 -3
14 -9 49 -14 78 -5 30 -12 63 -16 74 -3 11 -7 30 -9 41 -5 34 -15 78 -27 122
-5 22 -12 48 -13 58 -22 112 -142 469 -221 654 -141 333 -376 746 -540 950
-19 23 -34 44 -34 47 0 6 -32 45 -61 76 -8 9 -23 27 -32 40 -50 71 -355 388
-457 475 -178 152 -406 311 -585 407 -46 25 -215 108 -220 108 -3 0 -24 9 -48
19 -55 25 -220 86 -277 102 -25 7 -49 14 -55 15 -36 11 -136 35 -165 40 -19 3
-43 7 -52 10 -10 3 -28 7 -40 9 -13 2 -41 7 -63 10 -41 7 -68 10 -170 21 -60
6 -374 12 -379 7z m367 -457 c26 -3 68 -9 95 -12 26 -3 51 -8 56 -11 4 -3 26
-7 47 -8 54 -4 281 -69 391 -111 110 -43 282 -124 286 -136 2 -4 10 -8 18 -8
7 0 47 -21 89 -47 41 -27 83 -52 93 -58 26 -15 116 -78 122 -85 3 -3 26 -21
53 -40 26 -18 47 -37 47 -42 0 -4 7 -8 15 -8 8 0 15 -4 15 -10 0 -5 4 -10 9
-10 16 0 224 -199 341 -326 50 -54 112 -130 209 -254 20 -25 38 -47 41 -50 15
-14 110 -160 110 -169 0 -6 3 -11 8 -11 4 0 21 -23 37 -51 17 -28 37 -63 46
-78 29 -46 91 -155 100 -176 5 -11 14 -29 21 -40 23 -40 28 -50 38 -73 5 -12
30 -66 56 -119 44 -92 63 -138 106 -248 27 -70 97 -280 114 -342 8 -29 21 -79
30 -110 8 -32 17 -69 20 -83 2 -14 7 -36 11 -50 4 -14 8 -32 9 -40 1 -8 5 -28
9 -45 17 -78 41 -217 51 -295 3 -25 9 -58 14 -73 7 -20 6 -26 -2 -21 -7 4 -8
3 -4 -4 11 -18 22 -101 31 -232 2 -25 6 -81 10 -125 4 -44 4 -78 2 -75 -5 5
-9 18 -22 88 -3 15 -15 65 -26 112 -11 47 -22 94 -24 104 -33 155 -164 545
-251 745 -30 70 -57 134 -59 145 -2 10 -11 26 -19 35 -8 9 -15 19 -15 23 -1
10 -74 161 -81 168 -3 3 -12 19 -20 35 -29 59 -163 280 -172 283 -4 2 -8 9 -8
16 0 7 -10 23 -22 36 -13 14 -23 27 -22 30 1 3 -9 19 -20 35 -46 63 -170 227
-180 238 -6 7 -22 26 -35 42 -56 73 -268 293 -355 370 -150 132 -319 259 -471
354 -126 79 -406 217 -550 271 -212 80 -491 150 -665 165 -19 2 -35 4 -35 5 0
6 -171 13 -315 14 -183 0 -333 -10 -440 -29 -14 -3 -45 -8 -70 -11 -25 -3 -48
-8 -51 -10 -3 -2 -21 -6 -40 -9 -31 -6 -89 -19 -131 -30 -10 -3 -26 -7 -36 -9
-10 -2 -67 -20 -127 -40 -103 -34 -149 -41 -91 -15 14 7 26 15 26 19 0 4 26
24 58 46 31 21 59 41 62 45 14 16 149 97 154 92 3 -4 6 -1 6 4 0 15 282 154
389 192 164 60 368 107 506 117 38 3 71 6 72 8 5 5 287 -1 336 -8z m-363 -821
c14 -3 48 -8 75 -11 28 -2 56 -6 63 -9 7 -2 34 -7 60 -11 26 -3 50 -8 55 -11
4 -2 20 -7 35 -9 62 -11 335 -98 357 -114 6 -4 21 -11 35 -15 71 -21 442 -219
460 -245 3 -4 19 -16 36 -26 74 -45 127 -84 115 -84 -7 0 -32 14 -56 30 -24
17 -47 30 -51 30 -4 0 -22 11 -41 26 -18 14 -33 22 -33 18 0 -4 -8 -1 -17 7
-10 8 -36 24 -58 34 -22 11 -41 23 -43 28 -2 4 -7 7 -12 7 -4 0 -54 22 -111
48 -93 43 -133 62 -149 67 -3 1 -18 7 -33 13 -16 7 -31 12 -34 12 -3 0 -19 7
-36 15 -18 8 -70 26 -117 40 -47 14 -91 28 -98 30 -7 3 -13 4 -15 5 -1 0 -27
7 -57 16 -30 9 -62 18 -70 19 -8 2 -15 4 -15 5 0 1 -11 3 -25 6 -14 2 -45 8
-70 14 -127 28 -290 50 -415 55 -44 2 -82 5 -85 6 -7 2 -63 1 -75 -1 -5 -1
-19 -1 -30 0 -12 2 -7 5 15 10 40 8 402 4 440 -5z m-480 0 c0 -7 -30 -13 -34
-7 -3 4 4 9 15 9 10 1 19 0 19 -2z m320 -468 c129 -17 242 -40 365 -73 50 -14
97 -26 105 -28 29 -7 245 -89 300 -113 130 -58 415 -213 430 -233 3 -4 16 -13
30 -20 21 -11 172 -117 213 -149 216 -172 382 -341 580 -591 24 -31 137 -200
137 -206 0 -3 8 -18 19 -32 18 -27 131 -238 131 -247 0 -3 11 -29 23 -57 13
-29 38 -98 56 -153 18 -55 35 -107 38 -115 3 -8 7 -26 9 -40 2 -14 6 -36 10
-50 12 -41 12 -43 19 -85 3 -22 8 -51 11 -65 9 -55 18 -191 17 -285 0 -136
-10 -233 -33 -340 -11 -49 -23 -101 -25 -115 -9 -40 -46 -150 -71 -212 -13
-32 -24 -61 -24 -66 0 -10 31 -25 220 -109 80 -35 152 -68 162 -73 11 -6 19
-5 25 3 21 29 100 251 122 345 7 28 16 54 20 56 20 13 17 -616 -3 -719 -2 -11
-7 -54 -10 -95 -4 -41 -11 -93 -16 -115 -4 -22 -11 -62 -15 -90 -4 -27 -9 -59
-10 -70 -4 -27 -51 -213 -76 -300 -26 -89 -85 -254 -115 -323 -13 -29 -24 -55
-24 -57 0 -11 -95 -200 -102 -203 -4 -2 -8 -8 -8 -13 0 -8 -17 -40 -84 -152
-86 -148 -260 -363 -367 -457 -41 -36 -76 -67 -79 -70 -5 -5 -90 -74 -115 -93
-5 -4 -28 -21 -50 -39 -67 -52 -295 -200 -380 -246 -252 -136 -539 -251 -735
-297 -8 -1 -42 -10 -75 -18 -60 -16 -145 -32 -220 -42 -22 -3 -49 -7 -60 -10
-94 -19 -485 -26 -615 -10 -36 4 -78 8 -95 10 -16 1 -30 4 -30 4 0 1 -20 4
-44 7 -87 9 -325 101 -454 176 -26 15 -52 28 -57 28 -6 0 -10 5 -10 10 0 6 -5
10 -11 10 -25 0 -131 84 -193 153 -62 69 -78 87 -124 142 -10 11 -31 38 -47
60 -16 22 -36 44 -42 48 -7 4 -13 12 -13 18 0 5 -9 20 -21 32 -21 22 -214 308
-259 382 -44 75 -70 120 -83 145 -6 14 -14 27 -17 30 -10 8 -176 351 -205 420
-14 36 -33 80 -41 97 -8 18 -26 63 -40 100 -14 38 -29 73 -34 78 -5 6 -8 12
-7 15 1 5 -39 121 -54 155 -53 121 -224 723 -253 890 -4 27 -23 125 -31 165
-2 8 -4 15 -5 15 -1 0 -3 14 -5 30 -2 17 -6 44 -9 61 -3 17 -8 48 -11 70 -2
21 -7 55 -10 74 -35 214 -60 665 -42 750 18 89 90 349 119 434 11 32 22 66 23
75 2 9 4 17 5 19 2 1 3 5 5 10 1 4 5 16 10 27 4 11 29 74 55 140 26 66 66 160
89 208 22 49 41 93 41 97 0 5 3 10 8 12 4 2 19 28 35 58 44 89 84 156 155 262
37 56 72 108 77 117 6 9 12 18 15 21 3 3 32 39 65 80 74 94 251 271 336 335
35 27 70 55 77 62 7 7 17 13 22 13 5 0 15 6 22 13 23 23 206 125 281 158 40
16 81 34 92 39 33 15 168 59 195 64 14 2 25 5 25 7 0 1 9 3 20 5 11 1 31 5 45
9 53 13 116 23 195 31 33 4 62 8 64 10 5 5 397 -4 441 -9z"/>
</g>
</svg>
